<svg xmlns="http://www.w3.org/2000/svg" viewBox="0 0 249.2 44.75"><defs><style>.cls-1{fill:#fff;}.cls-2{fill:red;}</style></defs><title>logo_footer</title><g id="Layer_2" data-name="Layer 2"><g id="menu_checkout" data-name="menu | checkout"><rect class="cls-1" x="0.25" y="0.25" width="43.97" height="43.95"/><path class="cls-2" d="M0,0V44.75H44.75V0ZM9.88,31.57V22.84C13.88,25,13.52,29.74,9.88,31.57Zm0-10.27V13C13.43,14.47,14,19.2,9.88,21.3Zm2.23.71h0a6,6,0,0,0,2.52-3.71v7.43A6,6,0,0,0,12.11,22ZM16.82,8.52c5,3.29,5.47,13.22,0,17ZM22.34,20V39.71a17.27,17.27,0,0,1-5.52-.92V27.9A11.68,11.68,0,0,0,22.34,20Zm2.2-12.59c5.82,3.62,5.6,14,0,18.07Zm5.52,13.37v17.1a17.16,17.16,0,0,1-5.52,1.68V27.85A12.83,12.83,0,0,0,30.06,20.77ZM25.17,5.31a17.16,17.16,0,0,1,4.89,1.58v4.63A12.31,12.31,0,0,0,25.17,5.31Zm7.08,4.8c4,2.87,4.7,10.17,0,14Zm-9.91,4.11A13.56,13.56,0,0,0,17,5.91a17.26,17.26,0,0,1,5.35-.85ZM14.62,6.89V16c-.57-3-3.34-4.59-5.16-5.18A17.44,17.44,0,0,1,14.62,6.89ZM7.68,13.18V31.59a17.22,17.22,0,0,1,0-18.41ZM9.5,34l.13,0h0l.25-.09v0a7.38,7.38,0,0,0,4.74-5.76v9.8A17.2,17.2,0,0,1,9.5,34Zm22.75,2.6V26l3.55,7.25A17.3,17.3,0,0,1,32.25,36.57Zm5-5.36-3.07-6.16h0a10.09,10.09,0,0,0,3.37-7.52,11.92,11.92,0,0,0-1-5,17.24,17.24,0,0,1,.66,18.71Z"/><path class="cls-1" d="M68.67,11.19h-14a3.37,3.37,0,0,1,1.27,2.45V31.21a3.37,3.37,0,0,1-1.28,2.36h11.7a3.32,3.32,0,0,1-1.28-2.4V25.42h4.44c2.84,0,8.22-1,8.22-7.22C77.74,13.55,74.61,11.18,68.67,11.19ZM65.08,23V13.65c2.11,0,4.54.08,4.54,4.72S66.64,23,65.08,23Z"/><path class="cls-1" d="M92.93,10.71c-7.44,0-13.46,4.37-13.46,11.64,0,3,1.44,11.72,13.63,11.72,7.11,0,13.46-3.4,13.46-11.72C106.57,15.71,101.43,10.71,92.93,10.71Zm.13,20.85c-2.41,0-4.53-2.8-4.53-9.15,0-5.84,1.51-9.15,4.46-9.15,3.12,0,4.61,3.14,4.61,9.15C97.61,27.74,96.34,31.56,93.07,31.56Z"/><path class="cls-1" d="M122.11,11.19h-14a3.37,3.37,0,0,1,1.27,2.45V31.21a3.36,3.36,0,0,1-1.28,2.36h11.7a3.33,3.33,0,0,1-1.28-2.4V25.42H123c2.84,0,8.21-1,8.21-7.22C131.18,13.55,128.05,11.18,122.11,11.19ZM118.53,23V13.65c2.1,0,4.54.08,4.54,4.72S120.08,23,118.53,23Z"/><path class="cls-1" d="M176.48,30.32h-7.19V13.4a3,3,0,0,1,1.32-2.21H158.91a3.35,3.35,0,0,1,1.27,2.48V31.24a3.25,3.25,0,0,1-1.28,2.33h19.62l2.2-5.08C179.88,29.48,178.85,30.21,176.48,30.32Z"/><path class="cls-1" d="M217,22.48l6.67,11.09h11.66c-.83-.31-2.53-2.84-3.22-3.86s-2.43-3.39-2.84-4a11.21,11.21,0,0,0-2.64-3s0,0,0,0a5.67,5.67,0,0,0,4.4-5.89c0-2.82-1.75-5.68-7.3-5.68H206.38a4.21,4.21,0,0,1,1.3,3.52v17c0,.28,0,1.26-.6,1.26-.34,0-.53-.13-.81-.61l-8.73-21.12h-9.71a2.64,2.64,0,0,1,.61,2.71l-6.95,16.76a7.32,7.32,0,0,1-2.14,2.91h5.77a4.27,4.27,0,0,1,.13-3.09l1-2.62h8.44l1,2.79a3.11,3.11,0,0,1-.3,2.92h22.69a2.73,2.73,0,0,1-1.17-2.12v-9Zm0-8.78h1.42c3.44,0,3.75,2.23,3.76,4,0,2.47-1.42,4.21-3.93,4.22h-1.25ZM187.28,25.12l3.24-8.46h0l3.16,8.45Z"/><path class="cls-1" d="M151.65,11.19a3.08,3.08,0,0,1,1.17,2.27l0,11.53a4.94,4.94,0,0,1-5.3,5.19,4.87,4.87,0,0,1-5.15-5.26V13.75a3.09,3.09,0,0,1,1.26-2.56H131.94a3.77,3.77,0,0,1,1.29,2.47V25.17c0,4.94,3.93,9,11.66,9,4.24,0,7.06-.89,9-2.91a9.07,9.07,0,0,0,2.42-6.29l0-11.18a3.42,3.42,0,0,1,1.26-2.55Z"/><path class="cls-1" d="M242,25.67h1.38c.88,0,1.46.24,1.46,1s-.57,1.1-1.46,1.1H242Zm-1.15,6.19H242V28.71h1l2,3.14h1.22l-2-3.14a1.81,1.81,0,0,0,1.84-2c0-1.34-.82-2-2.43-2h-2.72Zm-3.75-3.54a6.06,6.06,0,1,0,6.06-6.05A6,6,0,0,0,237.09,28.32Zm1.16,0a4.9,4.9,0,1,1,4.9,5A4.83,4.83,0,0,1,238.25,28.32Z"/></g></g></svg>