<svg xmlns="http://www.w3.org/2000/svg" viewBox="0 0 310.77 36"><defs><style>.cls-1,.cls-3{fill:#fff;}.cls-2{fill:red;}.cls-3{font-size:26.3px;font-family:Optima-Regular, Optima Regular;}.cls-4{letter-spacing:-0.01em;}.cls-5{letter-spacing:0em;}.cls-6{letter-spacing:-0.03em;}.cls-7{letter-spacing:-0.01em;}.cls-8{letter-spacing:-0.02em;}.cls-9{letter-spacing:-0.01em;}.cls-10{letter-spacing:-0.02em;}</style></defs><title>Asset 1</title><g id="Layer_2" data-name="Layer 2"><g id="Layer_1-2" data-name="Layer 1"><rect class="cls-1" x="0.5" y="0.5" width="35" height="35"/><path class="cls-1" d="M55.23,9H44a2.71,2.71,0,0,1,1,2V25.1A2.71,2.71,0,0,1,44,27h9.41a2.65,2.65,0,0,1-1-1.92V20.44h3.57c2.28,0,6.61-.84,6.61-5.81C62.53,10.9,60,9,55.23,9Zm-2.88,9.52V11C54,11,56,11,56,14.77S53.6,18.51,52.35,18.52Z"/><path class="cls-1" d="M74.76,8.61c-6,0-10.83,3.51-10.83,9.36,0,2.43,1.16,9.43,11,9.43,5.72,0,10.83-2.73,10.83-9.43C85.72,12.63,81.59,8.61,74.76,8.61Zm.1,16.77c-1.93,0-3.65-2.25-3.65-7.35,0-4.7,1.21-7.37,3.59-7.37s3.71,2.53,3.71,7.37C78.52,22.31,77.5,25.38,74.86,25.38Z"/><path class="cls-1" d="M98.22,9H87a2.71,2.71,0,0,1,1,2V25.1A2.71,2.71,0,0,1,87,27h9.41a2.65,2.65,0,0,1-1-1.92V20.44h3.57c2.29,0,6.61-.84,6.61-5.81C105.52,10.9,103,9,98.22,9Zm-2.88,9.52V11C97,11,99,11,99,14.77S96.59,18.51,95.34,18.52Z"/><path class="cls-1" d="M142,24.38h-5.79V10.78A2.39,2.39,0,0,1,137.23,9h-9.41a2.71,2.71,0,0,1,1,2V25.13a2.62,2.62,0,0,1-1,1.87H143.6l1.77-4.08A4.15,4.15,0,0,1,142,24.38Z"/><path class="cls-1" d="M174.53,18.08,179.91,27h9.37c-.67-.24-2-2.28-2.59-3.1s-1.95-2.73-2.28-3.18a9,9,0,0,0-2.12-2.38s0,0,0,0a4.55,4.55,0,0,0,3.54-4.73C185.82,11.3,184.42,9,180,9H166a3.39,3.39,0,0,1,1,2.83V25.47c0,.23,0,1-.48,1-.27,0-.42-.1-.65-.49l-7-17h-7.81a2.13,2.13,0,0,1,.49,2.18L146,24.67A5.83,5.83,0,0,1,144.27,27h4.63a3.43,3.43,0,0,1,.11-2.48l.79-2.11h6.79l.83,2.24a2.51,2.51,0,0,1-.24,2.35h18.25a2.19,2.19,0,0,1-.94-1.71V18.09Zm0-7.05h1.14c2.76,0,3,1.79,3,3.24a3.06,3.06,0,0,1-3.16,3.4h-1Zm-23.86,9.18,2.6-6.81h0l2.54,6.8Z"/><path class="cls-1" d="M122,9a2.47,2.47,0,0,1,.93,1.83l0,9.28a4,4,0,0,1-4.26,4.17A3.91,3.91,0,0,1,114.5,20v-9a2.47,2.47,0,0,1,1-2.06h-9.37a3,3,0,0,1,1,2v9.26c0,4,3.16,7.23,9.38,7.21,3.41,0,5.69-.72,7.22-2.35A7.3,7.3,0,0,0,125.72,20l0-9a2.75,2.75,0,0,1,1-2.05Z"/><path class="cls-2" d="M0,0V36H36V0ZM7.95,25.39v-7A3.83,3.83,0,0,1,7.95,25.39Zm0-8.26V10.48C10.8,11.63,11.28,15.44,7.95,17.13Zm1.8.57h0a4.84,4.84,0,0,0,2-3v6A4.78,4.78,0,0,0,9.74,17.7ZM13.53,6.85c4.06,2.64,4.4,10.63,0,13.7ZM18,16.08V31.94a13.9,13.9,0,0,1-4.44-.74V22.44A9.41,9.41,0,0,0,18,16.08ZM19.74,5.94c4.68,2.91,4.51,11.25,0,14.54ZM24.18,16.7V30.46a13.8,13.8,0,0,1-4.44,1.35V22.4A10.3,10.3,0,0,0,24.18,16.7ZM20.25,4.27a13.84,13.84,0,0,1,3.93,1.27V9.26A9.92,9.92,0,0,0,20.25,4.27Zm5.7,3.86c3.24,2.31,3.78,8.18,0,11.25Zm-8,3.31a10.9,10.9,0,0,0-4.3-6.69A13.92,13.92,0,0,1,18,4.06Zm-6.21-5.9v7.33C11.3,10.46,9.08,9.18,7.61,8.7A14,14,0,0,1,11.76,5.54ZM6.18,10.59V25.41a13.85,13.85,0,0,1,0-14.81ZM7.64,27.33l.11,0h0l.2-.07h0a5.93,5.93,0,0,0,3.82-4.64v7.88A13.94,13.94,0,0,1,7.64,27.33Zm18.3,2.09V20.93l2.85,5.84A14,14,0,0,1,25.95,29.42Zm4-4.31-2.47-5h0a8.11,8.11,0,0,0,2.72-6,9.57,9.57,0,0,0-.78-4,13.87,13.87,0,0,1,.53,15Z"/><text class="cls-3" transform="translate(196.76 27.16)"><tspan class="cls-4">T</tspan><tspan class="cls-5" x="12.92" y="0">E </tspan><tspan class="cls-6" x="31.44" y="0">P</tspan><tspan class="cls-7" x="44.71" y="0">R</tspan><tspan class="cls-8" x="58.7" y="0">E</tspan><tspan class="cls-9" x="71.22" y="0">M</tspan><tspan class="cls-10" x="92.15" y="0">I</tspan><tspan x="97.91" y="0">A</tspan></text></g></g></svg>