<svg xmlns="http://www.w3.org/2000/svg" viewBox="0 0 41.65 31.43"><defs><style>.cls-1{fill:#fff;}.cls-2{fill:#b6272d;}</style></defs><title>minicart</title><g id="Layer_2" data-name="Layer 2"><g id="Isolation_Mode" data-name="Isolation Mode"><path class="cls-1" d="M27.39,21.36H13.72V19.28h13l4.14-9.86H8.51V7.34H32.39a1,1,0,0,1,1,1.44l-5,11.94A1,1,0,0,1,27.39,21.36Z"/><rect class="cls-1" x="18.96" y="13.31" width="12.96" height="2.08" transform="translate(2.29 32.16) rotate(-66.99)"/><rect class="cls-1" x="14.44" y="13.31" width="12.96" height="2.08" transform="translate(-0.47 28) rotate(-67)"/><rect class="cls-1" x="10.02" y="13.31" width="12.96" height="2.08" transform="translate(-3.16 23.93) rotate(-66.99)"/><rect class="cls-1" x="8.95" y="11.1" width="8.25" height="2.08" transform="translate(-3.21 19.43) rotate(-67)"/><path class="cls-1" d="M27.77,25.65H15.25a1,1,0,0,1-1-.63L6.12,6.08H1A1,1,0,0,1,1,4H6.8a1,1,0,0,1,1,.63l8.18,18.94H27.77a1,1,0,1,1,0,2.08Z"/><path class="cls-1" d="M27.77,31.43A3.93,3.93,0,1,1,31.7,27.5,3.93,3.93,0,0,1,27.77,31.43Zm0-5.78a1.85,1.85,0,1,0,1.85,1.85A1.85,1.85,0,0,0,27.77,25.65Z"/><path class="cls-1" d="M17.42,31.43a3.93,3.93,0,1,1,3.93-3.93A3.93,3.93,0,0,1,17.42,31.43Zm0-5.78a1.85,1.85,0,1,0,1.85,1.85A1.85,1.85,0,0,0,17.42,25.65Z"/><circle class="cls-2" cx="33.15" cy="8.5" r="7.5"/><path class="cls-1" d="M33.15,2a6.5,6.5,0,1,1-6.5,6.5A6.5,6.5,0,0,1,33.15,2m0-2a8.5,8.5,0,1,0,8.5,8.5A8.51,8.51,0,0,0,33.15,0Z"/></g></g></svg>