<svg xmlns="http://www.w3.org/2000/svg" viewBox="0 0 49.81 49.81"><defs><style>.cls-1{opacity:0.2;}.cls-2{fill:#fff;}</style></defs><title>gplus_icon</title><g id="Layer_2" data-name="Layer 2"><g id="info_contact" data-name="info | contact"><g id="Style_2_copy_3" data-name="Style 2 copy 3"><g class="cls-1"><path class="cls-2" d="M24.91,0A24.91,24.91,0,1,0,49.81,24.91,24.9,24.9,0,0,0,24.91,0Z"/></g><path class="cls-2" d="M19,36.68a11.78,11.78,0,1,1,0-23.55A12.11,12.11,0,0,1,26.86,16l-3,3.44A7.42,7.42,0,0,0,19,17.69a7.21,7.21,0,1,0,0,14.43c3.43,0,5.67-1.64,6.4-4.59H19V23H30.29v2.28C30.29,32.09,25.75,36.68,19,36.68Z"/><polygon class="cls-2" points="42.81 22.97 39.33 22.97 39.33 19.5 36.55 19.5 36.55 22.97 33.07 22.97 33.07 25.75 36.55 25.75 36.55 29.23 39.33 29.23 39.33 25.75 42.81 25.75 42.81 22.97"/></g></g></g></svg>