<svg xmlns="http://www.w3.org/2000/svg" viewBox="0 0 49.81 49.81"><defs><style>.cls-1{opacity:0.2;}.cls-2{fill:#fff;}</style></defs><title>twitter_icon</title><g id="Layer_2" data-name="Layer 2"><g id="info_contact" data-name="info | contact"><g id="Flat_copy" data-name="Flat copy"><g class="cls-1"><path class="cls-2" d="M24.91,0A24.91,24.91,0,1,0,49.81,24.91,24.9,24.9,0,0,0,24.91,0Z"/></g><path class="cls-2" d="M28.37,13.83a5.73,5.73,0,0,0-3.86,5.77l.06,1-1-.12a16.1,16.1,0,0,1-9.43-4.64l-1.31-1.3-.33,1a5.79,5.79,0,0,0,1.23,5.93c.79.84.61,1-.75.46a2.31,2.31,0,0,0-.93-.22,7.18,7.18,0,0,0,.71,2.68,6.4,6.4,0,0,0,2.71,2.56l1,.46-1.15,0c-1.11,0-1.15,0-1,.44A6,6,0,0,0,18,31.09l1.23.42-1.07.64a11.09,11.09,0,0,1-5.31,1.48,5.84,5.84,0,0,0-1.63.16A15.18,15.18,0,0,0,15,35.56a16.71,16.71,0,0,0,13-1.48,17.4,17.4,0,0,0,6.6-7.77,20.64,20.64,0,0,0,1.35-6c0-.92.06-1,1.17-2.14a13.32,13.32,0,0,0,1.39-1.54c.2-.38.18-.38-.83,0-1.68.6-1.92.52-1.09-.38a5.85,5.85,0,0,0,1.35-2.14c0-.06-.3,0-.63.22a10.86,10.86,0,0,1-1.74.68l-1.07.34-1-.66a8.08,8.08,0,0,0-1.68-.88A6.76,6.76,0,0,0,28.37,13.83Z"/></g></g></g></svg>